M48
;DRILL file {KiCad 5.0.1-33cea8e~66~ubuntu18.04.1} date Fri 09 Nov 2018 10:45:03 CET
;FORMAT={-:-/ absolute / inch / decimal}
FMAT,2
INCH,TZ
T1C0.0315
T2C0.0394
T3C0.1260
%
G90
G05
M72
T1
X5.1323Y-2.6866
X5.2323Y-2.6866
X5.3323Y-2.6866
X5.4323Y-2.6866
X5.4921Y-4.5866
X5.5323Y-2.6866
X5.5921Y-4.5866
X5.6323Y-2.6866
X5.6921Y-4.5866
X5.7323Y-2.6866
X5.7921Y-4.5866
X5.8323Y-2.6866
X5.8921Y-4.5866
X5.9323Y-2.6866
X5.9921Y-4.5866
X6.0323Y-2.6866
X6.0921Y-4.5866
X6.1921Y-2.6866
X6.1921Y-4.5866
X6.2921Y-2.6866
X6.3921Y-2.6866
X6.3921Y-4.5866
X6.4921Y-2.6866
X6.4921Y-4.5866
X6.5921Y-2.6866
X6.5921Y-4.5866
X6.6921Y-2.6866
X6.6921Y-4.5866
X6.7921Y-2.6866
X6.7921Y-4.5866
X6.8921Y-2.6866
X6.8921Y-4.5866
T2
X6.378Y-2.8346
X6.6929Y-4.1496
X6.8898Y-2.8346
X6.8937Y-4.1496
X4.7953Y-3.2677
X4.8953Y-3.2677
X4.9953Y-3.2677
X5.0953Y-3.2677
X5.1953Y-3.2677
X5.2953Y-3.2677
X6.4488Y-3.2677
X6.5488Y-3.2677
X6.6488Y-3.2677
X6.7488Y-3.2677
X6.8488Y-3.2677
X6.9488Y-3.2677
T3
X5.4331Y-3.4449
X6.311Y-3.4449
X4.6575Y-3.4449
X7.0866Y-3.4449
T0
M30
