M48
;DRILL file {KiCad 5.0.1-33cea8e~66~ubuntu18.04.1} date Mon 26 Nov 2018 12:52:58 CET
;FORMAT={-:-/ absolute / inch / decimal}
FMAT,2
INCH,TZ
T1C0.0394
T2C0.1260
%
G90
G05
M72
T1
X1.8799Y-2.3
X1.8799Y-2.4
X1.8799Y-2.5
X2.0447Y-1.1978
X2.0447Y-1.2978
X2.0447Y-1.3978
X2.0447Y-1.4978
X2.0447Y-1.5978
X2.0447Y-1.6978
X2.0447Y-1.7978
X2.0447Y-1.8978
X2.0447Y-1.9978
X2.0447Y-2.0978
X2.0447Y-2.1978
X2.0447Y-2.2978
X2.0447Y-2.3978
X2.0447Y-2.4978
X2.6447Y-1.1978
X2.6447Y-1.2978
X2.6447Y-1.3978
X2.6447Y-1.4978
X2.6447Y-1.5978
X2.6447Y-1.6978
X2.6447Y-1.7978
X2.6447Y-1.8978
X2.6447Y-1.9978
X2.6447Y-2.0978
X2.6447Y-2.1978
X2.6447Y-2.2978
X2.6447Y-2.3978
X2.6447Y-2.4978
X2.9039Y-1.6977
X2.9039Y-1.7977
X2.9039Y-1.8977
X2.9039Y-1.9977
X2.9039Y-2.0977
X2.9039Y-2.1977
X3.1451Y-1.6983
X3.1451Y-1.7983
X3.1451Y-1.8983
X3.1451Y-1.9983
X3.1451Y-2.0983
X3.1451Y-2.1983
X1.8858Y-1.1937
X1.8858Y-1.2937
X1.8858Y-1.3937
T2
X2.2835Y-2.5984
X2.9921Y-1.063
X2.2835Y-1.063
X2.9921Y-2.5984
T0
M30
